<svg data-v-0dd9719b="" version="1.0" xmlns="http://www.w3.org/2000/svg" xmlns:xlink="http://www.w3.org/1999/xlink"
     width="100%" height="100%" viewBox="0 0 60 60"
     color-interpolation-filters="sRGB">
    <g fill="#0a0619">
        <g class="iconsvg-imagesvg"
           mask="url(#0a63b745-9615-41cf-a699-e0cfd785b27f)" opacity="1">
            <rect v-gra="id" width="60" height="60"
                  style="pointer-events:none;" fill="url(#fhTbhFEcRTkhzLa6H09c-)"></rect>
            <svg data-v-0dd9719b="" version="1.0" xmlns="http://www.w3.org/2000/svg"
                 xmlns:xlink="http://www.w3.org/1999/xlink"
                 width="100%" height="100%" viewBox="0 0 250 250"
                 color-interpolation-filters="sRGB">
                <defs v-gra="id">
                    <filter id="7ed510ad-d3b0-46c6-93bd-fc01420e6d16" filterUnits="userSpaceOnUse">
                        <feColorMatrix type="matrix"
                                       values="0 0 0 0 0.99609375  0 0 0 0 0.99609375  0 0 0 0 0.99609375  0 0 0 1 0"></feColorMatrix>
                    </filter>
                    <linearGradient x1="0" y1="1" x2="0" y2="0" id="fhTbhFEcRTkhzLa6H09c-">
                        <stop offset="0%" stop-color="#57ec99"></stop>
                        <stop offset="33.33%" stop-color="#1371ef"></stop>
                        <stop offset="66.67%" stop-color="#fc1cd5"></stop>
                        <stop offset="100%" stop-color="#fccc05"></stop>
                    </linearGradient>
                    <filter id="42443b3f1de60f6b6fd3b6a9844b4764" filterUnits="objectBoundingBox">
                        <feColorMatrix type="matrix"
                                       values="0 0 0 0 0.99609375  0 0 0 0 0.99609375  0 0 0 0 0.99609375  0 0 0 1 0"></feColorMatrix>
                    </filter>
                </defs>
                <mask v-gra="im" id="0a63b745-9615-41cf-a699-e0cfd785b27f">
                    <g class="iconsvg-imagesvg" filter="url(#7ed510ad-d3b0-46c6-93bd-fc01420e6d16)">
                        <g>
                            <rect fill="#0a0619" fill-opacity="0" stroke-width="2" x="0" y="0" width="60"
                                  height="60"></rect>
                            <svg x="0" y="0" width="60" height="60" filtersec="colorsf4971247132">
                                <svg xmlns="http://www.w3.org/2000/svg"
                                     viewBox="-0.9898899999999999 -0.9898899999999999 56.57978 28.52252">
                                    <path d="M24.5 18.1c-1.4 3.3-4.2 5.9-7.9 6.9-6.5 1.8-13.2-1.9-15.1-8.4S3.4 3.4 9.9 1.5c3.2-.9 6.3-.6 9.7 1.3L40 14.2c3.9 2.2 6.6 2.3 9.9 1.4 1.3-.4 2.6-1 3.6-1.7M1.1 12.7c1.1-.8 2.3-1.3 3.6-1.7 3.2-.9 6.3-.6 9.7 1.3l20.4 11.3c3.9 2.2 6.6 2.3 9.9 1.4 6.5-1.8 10.3-8.6 8.4-15.1S44.5-.4 38 1.5c-3.7 1-6.5 3.7-7.9 6.9"
                                          fill="none" stroke="#282828" stroke-width="4" stroke-miterlimit="10"></path>
                                </svg>
                            </svg>
                        </g>
                    </g>
                </mask>
            </svg>
        </g>
    </g>
</svg>
